<svg width="1600" height="900" viewBox="0 0 1600 900" xmlns="http://www.w3.org/2000/svg" role="img" aria-labelledby="title desc">
  <title id="title">Stylized illustration of an Alfa Romeo GTV 2000</title>
  <desc id="desc">A minimalist illustration showing the profile of a classic Alfa Romeo GTV 2000 coupé on a dark orange gradient background.</desc>
  <defs>
    <linearGradient id="bg" x1="0" y1="0" x2="1" y2="1">
      <stop offset="0%" stop-color="#180b05" />
      <stop offset="50%" stop-color="#2b1207" />
      <stop offset="100%" stop-color="#441b0b" />
    </linearGradient>
    <linearGradient id="window" x1="0" y1="0" x2="1" y2="0">
      <stop offset="0%" stop-color="#222b38" stop-opacity="0.95" />
      <stop offset="100%" stop-color="#101722" stop-opacity="0.8" />
    </linearGradient>
    <filter id="glow" x="-20%" y="-20%" width="140%" height="140%">
      <feGaussianBlur stdDeviation="28" result="shadow" />
      <feMerge>
        <feMergeNode in="shadow" />
        <feMergeNode in="SourceGraphic" />
      </feMerge>
    </filter>
  </defs>
  <rect width="1600" height="900" fill="url(#bg)" />
  <ellipse cx="800" cy="720" rx="520" ry="140" fill="#0b0f16" opacity="0.7" filter="url(#glow)" />
  <g transform="translate(260 420)">
    <path d="M1200 180c-46-24-132-28-236-22l-102 6c-18 1-30-1-44-10-44-28-98-45-154-50l-146-12c-92-8-176 16-222 40-12 6-30 18-40 32-8 10-16 30-18 44l-18 92c-2 14 10 26 24 26h44c12 0 22 8 26 18l10 26c4 12 12 18 24 18h38c8 0 16-4 20-10l18-28c4-6 10-10 18-10h374c10 0 18 4 24 10l24 26c6 6 14 10 22 10h68c12 0 22-8 26-18l20-52c2-4 4-8 8-10l90-46c22-10 34-36 22-58z" fill="#d4451c" stroke="#f36f2f" stroke-width="6" stroke-linejoin="round" />
    <path d="M430 72c-4 32-2 76 10 118 2 6 8 12 16 12h356c12 0 22-8 24-20l10-60c2-12-6-24-18-26-84-12-224-28-354-24-24 0-42 0-44 0-2 0-4 0-4 0z" fill="url(#window)" stroke="#6f859e" stroke-width="6" stroke-linejoin="round" />
    <circle cx="360" cy="250" r="80" fill="#0b0f16" stroke="#bfc8d6" stroke-width="10" />
    <circle cx="360" cy="250" r="44" fill="#e4e8ef" stroke="#c6d0dd" stroke-width="8" />
    <circle cx="920" cy="250" r="80" fill="#0b0f16" stroke="#bfc8d6" stroke-width="10" />
    <circle cx="920" cy="250" r="44" fill="#e4e8ef" stroke="#c6d0dd" stroke-width="8" />
    <rect x="200" y="226" width="80" height="12" rx="6" fill="#f9cbb3" opacity="0.8" />
    <rect x="1010" y="228" width="90" height="16" rx="8" fill="#f7f0eb" opacity="0.9" />
    <circle cx="1160" cy="222" r="10" fill="#f7d7c3" />
    <path d="M356 122h212c10 0 18 6 22 14l14 30c2 4 0 10-4 12-4 2-8 0-12-4l-10-16c-4-8-12-14-22-14h-200c-6 0-10-6-10-12v-8c0-8 4-12 10-12z" fill="#f2f4f7" opacity="0.9" />
  </g>
  <text x="80" y="160" fill="#f7d7c3" font-family="'Manrope', 'Segoe UI', sans-serif" font-size="62" font-weight="700" letter-spacing="2">Alfa Romeo GTV 2000</text>
  <text x="82" y="210" fill="#f0c5a1" font-family="'Manrope', 'Segoe UI', sans-serif" font-size="26" font-weight="500">Restoration snapshot</text>
</svg>
