<svg width="1600" height="900" viewBox="0 0 1600 900" xmlns="http://www.w3.org/2000/svg" role="img" aria-labelledby="title desc">
  <title id="title">Alfa GTV 2000 restoration hero art</title>
  <desc id="desc">Minimal illustration of a vintage Alfa GTV coupé with orange accent lighting.</desc>
  <defs>
    <linearGradient id="dusk" x1="0%" y1="0%" x2="0%" y2="100%">
      <stop offset="0%" stop-color="#0c0d12" />
      <stop offset="60%" stop-color="#0a0b10" />
      <stop offset="100%" stop-color="#050608" />
    </linearGradient>
    <linearGradient id="glow" x1="0%" y1="50%" x2="100%" y2="60%">
      <stop offset="0%" stop-color="#ff7a2a" stop-opacity="0.18" />
      <stop offset="50%" stop-color="#ff6b00" stop-opacity="0.24" />
      <stop offset="100%" stop-color="#ff9b4f" stop-opacity="0.14" />
    </linearGradient>
  </defs>
  <rect width="1600" height="900" fill="url(#dusk)" />
  <rect y="520" width="1600" height="380" fill="#0a0b10" />
  <rect y="540" width="1600" height="36" fill="url(#glow)" />
  <g transform="translate(140 360)">
    <path d="M1300 214c-36 0-54-14-80-14H880c-70 0-118-6-156-16l-96-26c-38-10-92-18-148-18H270c-36 0-78 24-100 54l-40 56c-10 14-16 34-16 52 0 26 16 48 44 48h141c10-36 44-64 84-64s74 28 84 64h468c10-36 44-64 84-64 46 0 84 38 84 84h40c16 0 32-18 32-36v-26c0-22-10-42-26-56l-18-16c-12-12-30-18-48-18h-40c-10-16-30-28-60-28z" fill="#0f1118" stroke="#222736" stroke-width="10" stroke-linejoin="round" />
    <path d="M434 180h580c32 0 70 12 94 32l62 50c8 6 12 16 12 26 0 14-12 26-26 26H270c-12 0-22-8-26-20-4-12-2-24 6-34l52-64c12-14 36-16 40-16z" fill="#0c0e15" stroke="#2b3040" stroke-width="10" />
    <path d="M390 210c-18 0-42 10-58 24l-38 34h246l-74-48c-18-12-50-10-76-10z" fill="#161927" />
    <path d="M894 200c-38 0-72 18-94 40h216l-86-40c-12-4-26-8-36-8z" fill="#161927" />
    <rect x="560" y="214" width="84" height="26" rx="6" fill="#222637" />
    <rect x="1060" y="214" width="74" height="26" rx="6" fill="#222637" />
    <path d="M214 322h76c26 0 50-16 56-38l4-18h-42c-26 0-50 12-66 30l-28 32z" fill="#121521" />
    <path d="M1094 234h124c14 0 26 12 26 26v30c0 10-8 18-18 18h-108l-24-74z" fill="#121521" />
    <path d="M278 356c0-40 32-72 72-72s72 32 72 72-32 72-72 72-72-32-72-72z" fill="#0a0b10" stroke="#ff6b00" stroke-width="10" />
    <path d="M1036 356c0-40 32-72 72-72s72 32 72 72-32 72-72 72-72-32-72-72z" fill="#0a0b10" stroke="#ff6b00" stroke-width="10" />
    <circle cx="350" cy="356" r="40" fill="#0f1118" stroke="#222637" stroke-width="14" />
    <circle cx="1108" cy="356" r="40" fill="#0f1118" stroke="#222637" stroke-width="14" />
    <circle cx="350" cy="356" r="14" fill="#ff6b00" />
    <circle cx="1108" cy="356" r="14" fill="#ff6b00" />
    <path d="M176 308h90l-30 48h-72c-10 0-18-8-18-18v-12c0-10 8-18 18-18h12z" fill="#ff6b00" opacity="0.8" />
    <path d="M1200 284h64c12 0 22 10 22 22v12c0 14-12 26-26 26h-82l22-60z" fill="#ff6b00" opacity="0.8" />
    <rect x="548" y="274" width="248" height="30" rx="6" fill="#ff6b00" opacity="0.2" />
    <path d="M816 194h202c10 0 24 8 32 16l36 34c6 6 10 14 10 22 0 12-10 22-22 22H816c-12 0-22-10-22-22v-50c0-12 10-22 22-22z" fill="#0f1118" stroke="#2b3040" stroke-width="10" />
    <path d="M374 260h360c10 0 18 8 18 18v32c0 10-8 18-18 18H322c-18 0-26-22-12-34l40-34c6-6 14-10 24-10z" fill="#0f1118" stroke="#2b3040" stroke-width="10" />
  </g>
  <g fill="#ff6b00" opacity="0.32">
    <circle cx="340" cy="164" r="14" />
    <circle cx="460" cy="134" r="10" />
    <circle cx="660" cy="104" r="8" />
    <circle cx="1180" cy="180" r="14" />
    <circle cx="1360" cy="120" r="12" />
  </g>
</svg>
